# xmcd
# 
# Track frame offsets:
#	150
#	12758
#	30268
#	47810
#	64488
#	76073
#	87080
#	97818
#	110493
#	129840
#	145620
#	154353
#	164000
#	178275
#	187293
#	197870
#	208805
#	226825
#
# Disc length: 3169 seconds
#
# Revision: 1
# Processed by: cddbd v1.4PL0 Copyright (c) Steve Scherf et al.
# Submitted via: Audio-CD-Archiv 2.10.441
#
DISCID=f20c5f12
DTITLE=Juke-Box - Country Hits Volume 2 CD2
DYEAR=1900
DGENRE=country
TTITLE0=roy orbison - crying
TTITLE1=kenny rogers - something´s burning
TTITLE2=michelle wright - the rythm of romance
TTITLE3=dick van altena - dust on the flattop
TTITLE4=jerry lee lewis - your cheatin`heart
TTITLE5=johnny cash - i love you because
TTITLE6=charlie rich - unchained melody
TTITLE7=jeanny c. riley - roses and thorns
TTITLE8=matt minglewood - working man
TTITLE9=kris kristofferson - why me
TTITLE10=waylon jennings - love´s gonna live here
TTITLE11=dolly parton - something fishy
TTITLE12=guy drake - welfare cadillac
TTITLE13=webb pierce - i ain´t never
TTITLE14=roy drusky - strangers
TTITLE15=hank lockin - send me the pillow
TTITLE16=the good brothers - it´s a rodeo
TTITLE17=jimmy c. newman - allons a lafayette
EXTD=
EXTT0=
EXTT1=
EXTT2=
EXTT3=
EXTT4=
EXTT5=
EXTT6=
EXTT7=
EXTT8=
EXTT9=
EXTT10=
EXTT11=
EXTT12=
EXTT13=
EXTT14=
EXTT15=
EXTT16=
EXTT17=
PLAYORDER=
